<svg version="1.1" xmlns="http://www.w3.org/2000/svg" viewBox="0 0 898.989 179.997">

<path fill="#324A97" d="M47.399,179.997H4.2c-2.4,0-4.2-1.6-4.2-3.8v-4.8c0-2.4,1.8-3.8,4.2-3.8h12.6V66.599l-13.6-13.8
	c-2.6-2.8-3-6.2-0.4-8.8l2.2-2.2c2.8-2.8,6.4-2.4,9,0.2l14.2,14.2c5.4-11.6,16.6-17.8,31.799-17.8c23.6,0,39.799,13.6,39.799,38.399
	v26.2c0,24.799-16,38.399-38.799,38.399c-12,0-21.399-4.199-27.399-11.999v38.199h13.8c2.2,0,4,1.399,4,3.8v4.8
	C51.399,178.397,49.599,179.997,47.399,179.997z M82.999,104.199v-28.4c0-16-8.6-24.399-24.799-24.399c-16,0-24.6,8.4-24.6,24.399
	v28.4c0,16.2,8.6,24.599,24.6,24.599C74.399,128.798,82.999,120.398,82.999,104.199z M164.998,142.198c-27,0-42.399-13-42.399-37
	v-29.2c0-24.6,15.8-37.6,41.199-37.6c26,0,41,12.6,41,36.8v14.2c0,4.4-2,6.4-6.2,6.4h-59.399v10.6c0,16.2,8.8,23.399,25.8,23.399
	c16.8,0,23-6.199,23-16.399v-1.2c0-1.8,0.8-2.6,2.8-2.6h10.2c1.6,0,2.6,1,2.6,2.6v1.4
	C203.597,131.397,191.197,142.198,164.998,142.198z M139.198,83.799h49.599v-9.8c0-16-8.6-23.399-25-23.399
	c-15.8,0-24.6,7.8-24.6,23.399V83.799z M269.396,139.998h-43.199c-2.4,0-4.2-1.601-4.2-3.8v-4.801c0-2.399,1.8-3.799,4.2-3.799h12.6
	V66.399l-13.6-13.6c-2.8-2.8-3-6.2-0.4-8.8l2.2-2.2c2.8-2.8,6.4-2.4,9,0.2l15.2,15.2c5-12,14.799-18.6,27.799-18.6h4
	c5.8,0,8.8,2.6,8.8,7.4v1c0,4.4-3.2,6.8-7.8,6.8h-4.8c-14.6,0-23.6,9.2-23.6,25.6v48.2h13.8c2.4,0,4.2,1.399,4.2,3.799v4.801
	C273.597,138.397,271.797,139.998,269.396,139.998z M318.197,104.599c0,16.6,8.8,24.8,25.2,24.8c15.399,0,23.399-6.8,23.399-20.4
	v-4.2c0-2.2,1.4-3.6,3.6-3.6h8.8c2.4,0,3.601,1.6,3.601,3.8v3.8c0,21.8-14.6,33.4-39.399,33.4c-26.399,0-42-14-42-38.8V77.199
	c0-24.8,15.601-38.8,42-38.8c24.8,0,39.399,11.6,39.399,33.4v3c0,2.2-1.2,3.6-3.601,3.6h-8.8c-2.199,0-3.6-1.4-3.6-3.6v-3.2
	c0-13.6-8-20.4-23.399-20.4c-16.4,0-25.2,8.2-25.2,24.6V104.599z M447.995,38.399c26.8,0,42.8,14,42.8,38.8v26.199
	c0,24.8-16,38.8-42.8,38.8c-26.6,0-42.6-14-42.6-38.8V77.199C405.396,52.399,421.396,38.399,447.995,38.399z M447.995,129.398
	c16.8,0,25.8-8.2,25.8-24.8v-28.8c0-16.399-9-24.6-25.8-24.6s-25.8,8.2-25.8,24.6v28.8
	C422.195,121.198,431.195,129.398,447.995,129.398z M511.195,139.998c-2.4,0-4-1.601-4-3.8v-4.801c0-2.399,1.6-3.799,4-3.799h13.199
	V12.4h-13.199c-2.4,0-4-1.4-4-3.8V3.8c0-2.2,1.6-3.8,4-3.8h23.6c4.2,0,6.2,1.8,6.2,6.2v121.398h13.399c2.4,0,4,1.399,4,3.799v4.801
	c0,2.199-1.6,3.8-4,3.8H511.195z M574.394,139.998c-2.4,0-4-1.601-4-3.8v-4.801c0-2.399,1.6-3.799,4-3.799h13.199V12.4h-13.199
	c-2.4,0-4-1.4-4-3.8V3.8c0-2.2,1.6-3.8,4-3.8h23.6c4.2,0,6.2,1.8,6.2,6.2v121.398h13.399c2.4,0,4,1.399,4,3.799v4.801
	c0,2.199-1.6,3.8-4,3.8H574.394z M704.792,125.198c-5.399,10.199-16.8,17-31.8,17c-23.999,0-36.399-11.4-36.399-28.8v-1.8
	c0-18.6,11.601-29,38.6-29c8.2,0,16.2,1,24.2,3V69.799c0-12.6-7-18.8-22.2-18.8c-15.8,0-21.399,6.2-21.399,16.2v1.4
	c0,2-1,3.2-3.4,3.2h-8.8c-2.199,0-3.399-1.2-3.399-3.4v-1.2c0-18,12-28.8,36.999-28.8c25.399,0,38.8,12,38.8,32.4v43.999l13,13
	c2.8,2.801,3.199,6,0.399,8.801l-2.2,2.199c-2.8,2.801-6.199,2.6-8.999-0.199L704.792,125.198z M675.393,129.798
	c14.2,0,24-8.199,24-20V96.599c-8.2-2-15-3-22.6-3c-16.601,0-24,6-24,17.199v2C652.793,123.398,659.993,129.798,675.393,129.798z
	 M785.592,139.998c-20.8,0-28.6-7.601-28.6-27.6V53h-15c-2.6,0-4.2-1.6-4.2-3.8v-4.6c0-2.4,1.601-4,4.2-4h15V17.4
	c0-3.8,2.399-6.4,6.399-6.4h4c3.8,0,6.2,2.6,6.2,6.4v23.2h24.199c2.4,0,4,1.6,4,4v4.6c0,2.2-1.6,3.8-4,3.8h-24.199v59.199
	c0,10.6,3.399,15,13,15h11.199c2.4,0,4,1.4,4,4v4.4c0,2.799-1.6,4.399-4.2,4.399H785.592z M859.189,142.198
	c-26.999,0-42.399-13-42.399-37v-29.2c0-24.6,15.8-37.6,41.2-37.6c25.999,0,40.999,12.6,40.999,36.8v14.2c0,4.4-2,6.4-6.2,6.4
	h-59.398v10.6c0,16.2,8.8,23.399,25.799,23.399c16.8,0,23-6.199,23-16.399v-1.2c0-1.8,0.8-2.6,2.8-2.6h10.2c1.6,0,2.6,1,2.6,2.6v1.4
	C897.789,131.397,885.39,142.198,859.189,142.198z M833.391,83.799h49.599v-9.8c0-16-8.6-23.399-24.999-23.399
	c-15.8,0-24.6,7.8-24.6,23.399V83.799z"/>
</svg>
